<svg width="153" height="32" viewBox="0 0 153 32" fill="none" xmlns="http://www.w3.org/2000/svg">
<path fill-rule="evenodd" clip-rule="evenodd" d="M14 30C21.732 30 28 23.732 28 16C28 8.26801 21.732 2 14 2C6.26801 2 0 8.26801 0 16C0 23.732 6.26801 30 14 30ZM15.4705 22.014C15.4705 19.8617 15.1978 19.2384 14.3798 17.4464L10.0848 8.06758H7.03645L12.5488 20.0565V24.8676H15.4705V22.014ZM14.409 16.19L17.9832 8.06758H20.9634L17.3794 16.19H14.409Z" fill="white"/>
<path d="M35.5 5.14961V25.9996H39.13V18.5596H40.9C45.64 18.5596 48.67 16.3696 48.67 11.7496C48.67 7.54961 45.85 5.14961 40.93 5.14961H35.5ZM40.93 15.7396H39.13V7.96961H41.05C43.6 7.96961 44.98 9.13961 44.98 11.7496C44.98 14.4796 43.45 15.7396 40.93 15.7396ZM54.6266 16.5796C55.6166 14.7496 57.0866 13.8196 59.2766 13.9396V10.5796C57.2366 10.6996 55.5566 11.9296 54.7166 13.9096H54.6266L54.5366 10.9096H51.0566V25.9996H54.6266V16.5796ZM72.0632 15.7096C72.0632 12.0496 70.2032 10.6696 66.4232 10.6696C64.0532 10.6696 62.1932 11.4196 61.1132 12.0496V15.0196C62.0732 14.2996 64.1732 13.5196 66.0032 13.5196C67.7132 13.5196 68.4932 14.1196 68.4932 15.7396V16.5796H67.9232C62.4632 16.5796 60.0332 18.3796 60.0332 21.4396C60.0332 24.4996 61.8932 26.2096 64.6532 26.2096C66.7532 26.2096 67.6532 25.5196 68.3432 24.7996H68.4932C68.5232 25.1896 68.6432 25.6996 68.7632 25.9996H72.2432C72.1232 24.7696 72.0632 23.5396 72.0632 22.3096V15.7096ZM68.4932 22.3996C68.0432 23.0596 67.2032 23.5996 65.9432 23.5996C64.4432 23.5996 63.6932 22.6996 63.6932 21.3496C63.6932 19.5796 64.9232 18.9496 67.9832 18.9496H68.4932V22.3996ZM81.4136 26.2996C83.0636 26.2996 84.2336 25.9996 85.1036 25.3696V22.4596C84.2036 23.0896 83.1236 23.4796 81.6236 23.4796C79.0736 23.4796 78.0236 21.4996 78.0236 18.3796C78.0236 15.1096 79.3136 13.4296 81.6536 13.4296C83.0336 13.4296 84.3836 13.9096 85.1036 14.3596V11.3296C84.3536 10.9096 83.0336 10.6096 81.2636 10.6096C76.7036 10.6096 74.3336 13.8796 74.3336 18.4696C74.3336 23.5096 76.6436 26.2996 81.4136 26.2996ZM86.302 10.9096V13.7296H88.192V21.4696C88.192 24.2896 89.782 26.2996 93.082 26.2996C94.822 26.2996 95.812 25.9096 95.812 25.9096V22.9996C95.812 22.9996 95.152 23.4796 93.952 23.4796C92.452 23.4796 91.762 22.6096 91.762 21.4996V13.7296H95.512V10.9096H91.762V7.60961H88.192V10.9096H86.302ZM99.3794 9.04961C100.549 9.04961 101.479 8.23961 101.479 6.94961C101.479 5.68961 100.549 4.84961 99.3794 4.84961C98.2094 4.84961 97.3094 5.68961 97.3094 6.94961C97.3094 8.23961 98.2094 9.04961 99.3794 9.04961ZM97.6094 10.9096V25.9996H101.179V10.9096H97.6094ZM110.652 26.2996C112.302 26.2996 113.472 25.9996 114.342 25.3696V22.4596C113.442 23.0896 112.362 23.4796 110.862 23.4796C108.312 23.4796 107.262 21.4996 107.262 18.3796C107.262 15.1096 108.552 13.4296 110.892 13.4296C112.272 13.4296 113.622 13.9096 114.342 14.3596V11.3296C113.592 10.9096 112.272 10.6096 110.502 10.6096C105.942 10.6096 103.572 13.8796 103.572 18.4696C103.572 23.5096 105.882 26.2996 110.652 26.2996ZM124.99 21.7396C124.33 22.5496 123.28 23.2396 121.99 23.2396C120.73 23.2396 120.16 22.6996 120.16 21.5596V10.9096H116.59V21.9196C116.59 24.9196 117.79 26.2396 120.7 26.2396C122.83 26.2396 124.09 25.4596 124.81 24.7396H124.99L125.08 25.9996H128.56V10.9096H124.99V21.7396ZM135.134 15.1696C135.794 14.3596 136.694 13.6696 137.984 13.6696C139.244 13.6696 139.664 14.2096 139.664 15.3496V25.9996H143.234V15.1696C143.894 14.3596 144.794 13.6696 146.084 13.6696C147.344 13.6696 147.764 14.2096 147.764 15.3496V25.9996H151.334V14.9896C151.334 11.9896 150.284 10.6696 147.374 10.6696C145.064 10.6696 143.684 11.5696 142.844 12.5896C142.274 11.2696 141.074 10.6696 139.124 10.6696C136.994 10.6696 136.034 11.4496 135.314 12.1696H135.134L135.044 10.9096H131.564V25.9996H135.134V15.1696Z" fill="white"/>
</svg>
